<svg width="312" height="430" viewBox="0 0 312 430" fill="none" xmlns="http://www.w3.org/2000/svg">
<path d="M31.3784 219.585H81.0714L54.0494 345.764H100.536L96.6434 365H0.463379L31.3784 219.585ZM157.425 344.848C157.425 348.359 156.662 351.489 155.135 354.237C153.761 356.985 151.853 359.275 149.41 361.107C147.12 362.939 144.448 364.313 141.395 365.229C138.342 366.298 135.136 366.832 131.777 366.832C125.976 366.832 121.014 365.305 116.892 362.252C112.923 359.046 110.938 354.084 110.938 347.367C110.938 343.856 111.625 340.726 112.999 337.978C114.373 335.23 116.205 332.94 118.495 331.108C120.785 329.276 123.38 327.902 126.281 326.986C129.334 325.917 132.464 325.383 135.67 325.383C141.929 325.383 147.12 326.986 151.242 330.192C155.364 333.245 157.425 338.131 157.425 344.848ZM300.645 365H247.059L243.853 328.589H201.488L185.229 365H163.016L230.571 219.585H284.844L300.645 365ZM209.045 311.872H242.25L236.983 249.584L209.045 311.872Z" fill="white"/>
<path d="M129.824 230.672C123.488 230.672 117.664 229.2 112.352 226.256C107.104 223.312 102.912 219.216 99.776 213.968C96.704 208.656 95.168 202.704 95.168 196.112C95.168 189.52 96.704 183.6 99.776 178.352C102.912 173.104 107.104 169.008 112.352 166.064C117.664 163.12 123.488 161.648 129.824 161.648C136.16 161.648 141.952 163.12 147.2 166.064C152.512 169.008 156.672 173.104 159.68 178.352C162.752 183.6 164.288 189.52 164.288 196.112C164.288 202.704 162.752 208.656 159.68 213.968C156.608 219.216 152.448 223.312 147.2 226.256C141.952 229.2 136.16 230.672 129.824 230.672ZM129.824 215.696C135.2 215.696 139.488 213.904 142.688 210.32C145.952 206.736 147.584 202 147.584 196.112C147.584 190.16 145.952 185.424 142.688 181.904C139.488 178.32 135.2 176.528 129.824 176.528C124.384 176.528 120.032 178.288 116.768 181.808C113.568 185.328 111.968 190.096 111.968 196.112C111.968 202.064 113.568 206.832 116.768 210.416C120.032 213.936 124.384 215.696 129.824 215.696ZM217.293 162.608V175.76H189.837V189.968H210.381V202.736H189.837V230H173.421V162.608H217.293Z" fill="white"/>
<path d="M12.224 95.944C12.224 87.0693 14.144 79.176 17.984 72.264C21.824 65.2667 27.1573 59.848 33.984 56.008C40.896 52.0827 48.704 50.12 57.408 50.12C68.0747 50.12 77.2053 52.936 84.8 58.568C92.3947 64.2 97.472 71.88 100.032 81.608H75.968C74.176 77.8533 71.616 74.9947 68.288 73.032C65.0453 71.0693 61.3333 70.088 57.152 70.088C50.4107 70.088 44.9493 72.4347 40.768 77.128C36.5867 81.8213 34.496 88.0933 34.496 95.944C34.496 103.795 36.5867 110.067 40.768 114.76C44.9493 119.453 50.4107 121.8 57.152 121.8C61.3333 121.8 65.0453 120.819 68.288 118.856C71.616 116.893 74.176 114.035 75.968 110.28H100.032C97.472 120.008 92.3947 127.688 84.8 133.32C77.2053 138.867 68.0747 141.64 57.408 141.64C48.704 141.64 40.896 139.72 33.984 135.88C27.1573 131.955 21.824 126.536 17.984 119.624C14.144 112.712 12.224 104.819 12.224 95.944ZM135.324 51.144V141H113.436V51.144H135.324ZM215.826 51.144V68.68H192.018V141H170.13V68.68H146.322V51.144H215.826ZM303.867 51.144L272.763 111.304V141H250.875V111.304L219.771 51.144H244.603L262.011 88.776L279.291 51.144H303.867Z" fill="white"/>
</svg>
